<svg width="376" height="210" viewBox="0 0 376 210" fill="none" xmlns="http://www.w3.org/2000/svg">
<g clip-path="url(#clip0_1008_73)">
<path d="M222.663 79.2282C221.698 76.2812 219.596 73.901 217.324 71.8891C215.819 70.5573 213.888 69.5372 212.524 68.2054C214.342 67.0719 215.876 67.1853 216.87 64.6067C219.34 58.2877 212.467 54.0656 207.071 53.5272C205.736 53.3855 204.146 53.4139 202.811 53.5272C201.732 53.6405 197.5 55.0574 197.273 54.9157C197.046 54.7457 196.478 50.2969 196.563 49.6735C202.414 45.423 211.814 41.5976 213.007 33.2951C213.49 30.0364 212.127 26.7494 208.463 26.2394C200.113 25.0776 195.967 37.2905 195.313 43.7229C195.2 44.913 195.569 48.37 195.228 49.1351C194.944 49.7301 187.247 52.9605 186.225 53.7822C185.799 53.9806 185.799 53.8106 185.543 53.5555C185.174 53.1305 183.868 48.9651 183.925 48.2567C183.925 48.2 183.925 48.1433 183.925 48.0866L184.095 47.5483C186.111 41.5126 192.161 33.0968 195.143 26.9195C198.153 20.6571 204.544 0.595075 191.735 1.04846C180.715 1.41683 178.472 20.2321 178.841 28.2513C179.125 34.4002 181.51 40.9459 181.823 46.3581C181.908 48.115 180.46 51.8837 179.892 53.6972C178.358 52.7338 171.173 48.54 170.604 47.2649C170.15 46.2448 171.087 42.2777 171.144 40.8326C171.343 35.3637 170.718 27.7979 167.679 23.1224C164.527 18.3052 158.449 16.9734 157.54 24.0858C156.603 31.2832 160.92 38.0839 165.294 43.3545C166.146 44.3746 169.184 47.0382 169.184 47.945C169.184 48.8801 166.714 57.0692 166.202 57.3243C166.004 57.4376 162.425 57.6076 161.63 57.7493C160.039 58.0893 158.222 58.4577 156.745 59.1661C148.537 63.1899 153.564 71.8891 161.999 64.4083C163.305 63.2465 166.316 58.4861 166.685 58.3727C168.446 57.7776 173.615 58.9111 175.66 59.0811C170.604 62.2831 163.504 65.5418 160.806 71.2657C159.727 73.5609 158.875 77.0463 161.062 79.0015C166.032 83.422 172.791 71.4357 174.808 67.9504C175.461 66.8452 178.443 60.2146 178.841 59.9879C179.238 59.7895 185.032 61.6314 185.117 61.9714C185.174 62.1981 182.192 64.635 181.709 65.2017C178.244 69.2255 174.467 75.4311 174.098 80.8434C172.735 101.047 204.487 108.641 197.671 82.1752C196.052 75.9129 192.274 69.8206 189.889 63.8133L200.908 68.4604C203.748 73.901 212.041 86.4823 218.858 86.3973C223.203 86.3406 223.714 82.5152 222.635 79.1999L222.663 79.2282ZM154.075 65.4001C151.519 60.4979 164.555 57.6926 165.521 58.4294C166.146 58.9111 156.546 70.1606 154.075 65.4001ZM197.671 55.9641C198.04 55.3691 203.294 54.604 204.26 54.5756C204.544 54.5756 204.856 54.5756 205.14 54.5756H205.481C215.677 54.774 221.471 65.0317 210.905 67.5253L199.346 62.2831C199.233 61.9997 199.119 61.5747 199.005 61.2347C198.721 60.4979 197.387 56.4175 197.671 55.9925V55.9641ZM196.535 56.3325C196.79 56.4742 197.813 60.8946 198.125 61.7447C196.421 61.6597 192.871 59.3928 190.94 59.1095C190.968 59.0528 191.053 58.9961 191.11 58.9394L191.28 58.7694C191.309 58.7411 191.422 58.7694 191.451 58.7694L191.508 58.7127L191.621 58.5994C191.735 58.5427 191.848 58.4861 191.962 58.4294C192.445 58.146 196.307 56.1908 196.506 56.3325H196.535ZM198.608 35.052C198.608 35.052 201.789 28.1663 205.992 27.2878C212.723 25.8994 212.666 35.1086 208.719 39.5291C206.73 41.7677 199.091 47.6899 196.364 48.455C196.08 43.8645 198.608 35.052 198.608 35.052ZM195.256 50.3819C195.739 50.3819 195.427 50.6369 195.512 50.8919C195.654 51.2886 196.307 54.944 196.222 55.1424C196.165 55.3124 193.496 56.4742 193.07 56.6725C192.388 57.0126 191.621 57.3243 190.968 57.721C190.911 57.7493 190.854 57.8343 190.798 57.891C190.173 58.2594 190.002 58.4294 189.207 58.4294C189.122 58.4294 188.866 58.2594 188.667 58.2594C186.907 57.551 186.679 56.5592 186.026 54.944C187.673 54.689 194.262 50.3819 195.228 50.4102L195.256 50.3819ZM182.334 11.0795C187.929 -2.09687 200.283 -0.991755 198.267 14.7632C197.756 18.6736 195.881 22.6123 194.433 26.2394C194.376 26.2961 194.291 26.3527 194.262 26.4094C194.149 26.5794 194.149 26.8061 194.092 26.9478C191.167 33.7768 187.134 38.4807 182.703 44.4313C180.204 34.0602 178.017 21.2239 182.334 11.0795ZM183.072 50.5519C183.328 51.0619 184.663 54.0373 184.606 54.349C184.549 54.9157 183.669 54.859 183.413 55.2841C179.664 54.689 182.817 53.2438 183.072 50.5519ZM160.323 34.3436C159.017 32.3317 157.512 25.1343 159.471 21.8189C161.857 17.7385 165.634 21.7056 167.111 24.2559C170.775 30.6315 170.349 39.1041 169.582 46.1881C169.582 46.1881 161.63 36.3838 160.323 34.3436ZM167.906 76.2529C166.259 77.9247 162.595 81.1267 161.09 77.273C159.045 72.0024 166.231 66.1368 169.98 63.6716C170.519 63.3032 177.506 59.0528 177.79 59.6478C178.33 60.838 169.554 74.581 167.906 76.2529ZM178.67 57.721L176.682 58.401L167.31 57.0976C168.531 56.1341 169.781 48.5967 170.122 48.2567C170.519 47.86 177.96 54.7457 179.409 54.5473C179.92 55.2557 178.812 56.9559 178.699 57.6926L178.67 57.721ZM179.551 58.7694C179.664 58.6561 179.778 58.2594 179.892 58.061C180.942 57.9193 182.164 56.5875 183.214 56.7292C185.174 57.0126 187.02 58.7694 186.708 60.6679C186.708 60.6679 186.424 60.753 186.367 61.008L179.522 58.7411L179.551 58.7694ZM195.853 80.1916C205.026 107.961 174.155 100.197 175.177 81.2401C175.461 75.8278 179.806 68.5738 183.584 64.805C184.322 64.0683 185.913 62.4248 186.907 62.4531C186.935 62.4531 195.2 78.2648 195.853 80.1916ZM198.551 66.6469C197.301 66.2502 190.428 63.2749 189.633 62.6231C188.014 61.3197 188.327 59.7328 190.599 59.9879C190.599 59.9879 191.934 60.4979 191.99 60.5263C194.149 61.2347 196.251 62.3965 198.466 62.9632C198.949 64.3517 199.659 65.7118 200.227 67.0719C199.659 66.9586 199.091 66.8169 198.551 66.6469ZM199.886 63.7566C199.829 63.3032 200.141 63.6149 200.397 63.6716L200.511 63.7849C200.511 63.7849 200.539 63.8416 200.567 63.8416C200.653 63.8699 200.823 63.8133 200.908 63.8416C203.777 64.805 206.844 66.4202 209.485 67.8654C207.98 68.0637 202.925 68.2054 201.732 67.497C201.419 67.327 199.886 64.0966 199.857 63.7566H199.886ZM220.988 84.8388C215.648 88.0691 207.526 77.4147 205.055 73.6176C204.742 73.1642 202.073 68.9421 202.328 68.7438C202.442 68.6304 204.884 69.0838 205.396 69.1121C208.151 69.1688 210.82 68.1771 213.035 69.7922C215.819 72.3708 219.198 74.2127 221.158 77.6697C221.158 77.7547 221.243 77.8114 221.3 77.8964C221.357 77.9814 221.385 78.0664 221.442 78.1798C221.442 78.2364 221.442 78.2931 221.442 78.3498C221.471 78.4631 221.584 78.5765 221.613 78.6898C222.237 80.6167 223.43 83.3369 220.988 84.8104V84.8388Z" fill="#1F3A37"/>
<path d="M189.86 100.282C187.645 100.282 185.231 99.6586 182.874 98.4402C177.733 95.7482 172.479 89.7126 173.075 80.8433C173.473 75.1477 177.392 68.7154 180.942 64.5783C181.169 64.295 181.709 63.8416 182.533 63.1048C182.76 62.9065 183.072 62.6231 183.356 62.3681C182.135 61.9147 180.289 61.3763 179.409 61.178C178.926 62.0564 177.932 64.1249 177.307 65.4284C176.625 66.8452 176.029 68.092 175.773 68.5454L175.631 68.8004C172.536 74.156 168.474 80.3616 164.243 81.0417C162.851 81.2684 161.516 80.8717 160.408 79.8516C157.313 77.1029 159.244 72.2858 159.897 70.8973C162.226 65.9385 167.537 62.8215 172.195 60.0445C172.337 59.9595 172.479 59.8745 172.621 59.7895C170.775 59.5061 168.332 59.1661 167.281 59.3928C167.026 59.7045 166.458 60.4979 166.003 61.1213C164.867 62.7081 163.589 64.5217 162.737 65.2584C158.193 69.2821 155.069 68.5454 153.933 68.0637C152.456 67.412 151.576 66.0802 151.519 64.465C151.462 62.0847 153.251 59.7612 156.29 58.2593C157.937 57.4659 159.954 57.0409 161.431 56.7292C161.885 56.6442 162.794 56.5592 164.186 56.4742C164.64 56.4458 165.18 56.3891 165.577 56.3608C166.231 54.859 167.991 49.2201 168.133 48.03C167.878 47.4916 166.486 46.1031 165.776 45.3947C165.237 44.8563 164.754 44.3746 164.47 44.0345C158.307 36.6104 155.694 30.0364 156.489 23.9441C157.057 19.637 159.301 18.5036 160.607 18.1919C163.277 17.5968 166.458 19.3253 168.559 22.5557C172.223 28.1662 172.337 37.2338 172.223 40.8609C172.223 41.4276 172.081 42.221 171.939 43.1561C171.769 44.2612 171.456 46.2731 171.598 46.8115C172.024 47.4349 174.637 49.2201 179.352 52.082C179.352 52.0537 179.352 51.997 179.38 51.9687C179.977 50.2118 180.857 47.5766 180.8 46.3864C180.658 43.8929 180.062 41.1442 179.409 38.2256C178.699 34.9669 177.96 31.5949 177.818 28.2796C177.534 22.4423 178.557 9.77601 184.35 3.48536C186.424 1.24679 188.895 0.0566703 191.706 -0.0283385C194.972 -0.141684 197.358 0.963431 198.835 3.20199C203.01 9.57765 198.125 23.1224 196.08 27.3445C194.859 29.8664 193.211 32.6717 191.451 35.6187C188.895 39.8974 186.282 44.3462 185.089 47.8599L184.975 48.2283C184.975 48.2283 184.975 48.285 184.975 48.3133C184.975 48.9084 185.77 51.4586 186.196 52.5071C186.992 52.0537 188.298 51.4303 190.087 50.5802C191.507 49.9001 193.609 48.9367 194.262 48.5117C194.319 47.9733 194.262 46.6698 194.262 45.8764C194.234 44.9413 194.205 44.1196 194.262 43.5812C194.66 39.6141 196.762 31.0282 201.845 27.0611C203.89 25.446 206.162 24.8226 208.605 25.1626C210.337 25.4176 211.757 26.211 212.751 27.5145C213.887 29.0447 214.37 31.1699 214.029 33.4084C213.007 40.4075 206.759 44.3179 201.249 47.8033C199.942 48.625 198.721 49.3901 197.585 50.1835C197.642 50.9769 197.841 52.6488 198.011 53.6689C198.494 53.5555 199.09 53.3572 199.602 53.2155C201.079 52.7904 202.101 52.5071 202.669 52.4504C204.089 52.2804 205.765 52.2804 207.156 52.4504C210.706 52.8188 215.194 54.689 217.295 58.1177C218.573 60.2145 218.744 62.5665 217.807 64.9467C216.926 67.2136 215.62 67.8087 214.37 68.3754C214.768 68.6587 215.165 68.9421 215.591 69.2538C216.387 69.8205 217.21 70.3873 217.977 71.039C220.874 73.5893 222.748 76.1395 223.629 78.8315C224.481 81.4101 224.339 83.8186 223.203 85.4055C222.578 86.3122 221.3 87.3607 218.886 87.389C218.886 87.389 218.829 87.389 218.801 87.389C215.506 87.389 211.729 84.9521 207.582 80.1349C204.401 76.4512 201.703 72.1724 200.141 69.2255L191.848 65.7401C192.501 67.2136 193.211 68.6871 193.921 70.1322C195.739 73.9293 197.642 77.8397 198.664 81.8351C201.306 92.0645 198.068 96.485 195.881 98.1851C194.205 99.4886 192.104 100.169 189.803 100.169L189.86 100.282ZM186.395 63.7282C185.998 63.9833 185.401 64.4933 184.407 65.4568L184.322 65.5418C180.63 69.1971 176.512 76.2812 176.228 81.2967C175.802 88.8342 180.658 93.9347 184.918 96.0316C188.468 97.7601 191.99 97.6751 194.12 95.8332C197.017 93.3113 197.273 87.8707 194.83 80.5316C194.319 78.9731 188.071 66.9019 186.395 63.7282ZM204.089 69.9906C204.685 71.039 205.509 72.3708 205.963 73.0509C209.656 78.7181 216.585 86.2839 220.448 83.932C221.84 83.0819 221.47 81.6368 220.76 79.5399C220.704 79.3699 220.647 79.2282 220.618 79.0865C220.562 78.9731 220.476 78.8598 220.42 78.6614C220.42 78.5764 220.391 78.5198 220.363 78.4348C220.306 78.3497 220.249 78.2364 220.192 78.1231C218.914 75.9128 217.011 74.411 215.023 72.8242C214.143 72.1158 213.234 71.4074 212.354 70.5856C211.104 69.7072 209.599 69.8489 207.866 69.9906C207.071 70.0756 206.247 70.1322 205.367 70.1322C205.14 70.1322 204.742 70.0756 204.089 69.9906ZM176.143 61.348C174.24 62.3398 171.371 64.0399 170.604 64.55C169.411 65.3434 166.401 67.4686 164.214 70.1039C162.056 72.7108 161.374 74.9777 162.112 76.9046C162.368 77.5847 162.709 77.953 163.078 78.0381C163.93 78.2081 165.464 77.273 167.168 75.5445C168.645 74.0426 174.24 65.2017 176.143 61.348ZM202.413 66.6469C202.925 66.8452 204.174 66.9586 205.537 66.9869C204.259 66.3635 202.953 65.7684 201.675 65.2584C201.959 65.8251 202.243 66.3919 202.413 66.6469ZM200.198 61.4897L211.019 66.3918C214.058 65.5984 215.648 64.0116 215.449 62.0281C215.052 58.2877 209.968 55.6807 205.481 55.5957H205.14C205.026 55.5957 204.913 55.5957 204.827 55.5957C204.657 55.5957 204.487 55.5957 204.316 55.5957C203.407 55.6524 199.999 56.1625 198.75 56.5592C198.948 57.6076 199.687 59.9879 199.999 60.8096C200.056 60.9796 200.113 61.178 200.17 61.348C200.17 61.3763 200.17 61.4047 200.198 61.433V61.4897ZM155.012 64.9184C155.268 65.3717 155.552 65.5418 156.035 65.5134C158.307 65.3717 162.112 61.5464 163.76 59.4495C161.374 59.7895 156.716 61.1213 155.183 63.1048C154.7 63.7282 154.643 64.2666 154.984 64.9184H155.012ZM189.69 61.093C189.747 61.2346 189.889 61.4897 190.286 61.8014C190.911 62.2831 196.336 64.6917 198.352 65.4568C198.125 64.9184 197.869 64.38 197.67 63.8416C196.506 63.5016 195.398 63.0198 194.347 62.5665C193.439 62.1697 192.558 61.8014 191.678 61.518C191.678 61.518 191.621 61.518 190.371 61.0363C190.002 61.008 189.803 61.0363 189.718 61.093H189.69ZM188.298 62.8215C188.355 62.9065 188.383 62.9915 188.44 63.0765L188.355 62.8782C188.355 62.8782 188.327 62.8215 188.298 62.7931V62.8215ZM187.418 61.4897C187.503 61.5463 187.588 61.6314 187.673 61.7164C187.616 61.5747 187.588 61.433 187.588 61.3197C187.531 61.3763 187.503 61.433 187.418 61.4897ZM193.467 58.8261C193.921 59.0244 194.404 59.2511 194.916 59.4778C195.484 59.7328 196.08 60.0162 196.62 60.2145C196.62 60.1295 196.563 60.0162 196.534 59.9028C196.364 59.2511 196.108 58.316 195.91 57.6359C195.2 57.9476 194.205 58.4294 193.467 58.8261ZM187.56 58.8827C187.702 59.2511 187.787 59.6195 187.815 60.0162C187.957 59.7895 188.156 59.5061 188.525 59.2794H188.44L188.298 59.2228C188.042 59.1094 187.815 58.9961 187.588 58.8827H187.56ZM181.766 58.401L185.6 59.6762C185.515 59.4495 185.401 59.2511 185.288 59.1094C184.776 58.4294 183.924 57.9193 183.072 57.7776C182.845 57.7493 182.249 58.0893 181.879 58.316L181.766 58.3727V58.401ZM188.951 57.2392C189.122 57.2676 189.264 57.3242 189.377 57.3809C189.633 57.3809 189.718 57.3242 190.087 57.0976C190.173 57.0125 190.258 56.9275 190.4 56.8425C190.939 56.5308 191.507 56.2475 192.075 55.9924C192.246 55.9074 192.416 55.8224 192.587 55.7658C192.7 55.7091 192.956 55.5957 193.268 55.4541C193.694 55.2557 194.546 54.8873 195.086 54.604C194.972 53.8389 194.745 52.5071 194.603 51.7703C193.836 52.167 192.643 52.8188 191.706 53.3288C189.832 54.3773 188.44 55.1424 187.418 55.5957C187.758 56.4742 188.042 56.8709 188.951 57.2392ZM168.985 56.2758L176.569 57.3242L177.818 56.8992C177.875 56.7292 177.96 56.5308 178.045 56.3325C178.159 56.0775 178.301 55.7091 178.386 55.4257C177.279 54.9723 175.66 53.7539 172.706 51.402C172.053 50.8919 171.314 50.2969 170.718 49.8435C170.633 50.1552 170.576 50.4669 170.491 50.7786C169.894 53.3005 169.44 55.0857 168.957 56.2758H168.985ZM180.573 55.1424C180.573 55.7374 180.317 56.3608 180.09 56.9275C180.317 56.8142 180.573 56.6725 180.829 56.5308C181.141 56.3325 181.51 56.1341 181.851 55.9641C181.34 55.7658 180.942 55.4541 180.715 54.9723C180.715 54.944 180.687 54.8873 180.658 54.859L180.573 55.114V55.1424ZM184.294 55.9358C184.72 56.0774 185.146 56.2758 185.543 56.5308C185.458 56.3041 185.344 56.0491 185.259 55.8224C185.231 55.7091 185.174 55.5957 185.146 55.5107C184.89 55.7374 184.578 55.8508 184.407 55.9358C184.407 55.9358 184.35 55.9358 184.322 55.9641L184.294 55.9358ZM182.76 54.0372C182.845 54.0656 182.959 54.0939 183.129 54.1506C183.214 54.0939 183.328 54.0372 183.413 54.0089C183.328 53.8106 183.243 53.5839 183.158 53.3572C183.129 53.4138 183.101 53.4705 183.044 53.5272C182.959 53.6972 182.845 53.8956 182.76 54.0372ZM182.788 47.6616L182.902 47.8883V47.7749C182.93 47.7749 183.101 47.2365 183.101 47.2365C183.47 46.1314 183.981 44.913 184.578 43.6945C184.237 44.1479 183.896 44.6013 183.555 45.0546L182.874 45.9897C182.874 46.1031 182.874 46.1881 182.874 46.3014C182.874 46.6981 182.874 47.1799 182.76 47.6616H182.788ZM199.602 35.4203C199.374 36.2137 197.642 42.5327 197.415 46.8398C200.539 45.168 206.219 40.7192 207.923 38.8207C210.224 36.2704 211.076 31.85 209.741 29.5264C209.059 28.3646 207.866 27.9679 206.219 28.3079C203.265 28.9313 200.482 33.5501 199.602 35.392V35.4203ZM161.204 33.7768C162.112 35.1653 166.373 40.5492 168.787 43.5245C169.355 37.0638 169.241 30.0931 166.202 24.7942C165.18 23.009 163.305 21.1388 161.999 21.1388C161.772 21.1388 161.118 21.1388 160.38 22.3573C159.642 23.6041 159.414 25.8143 159.727 28.4496C160.011 30.8865 160.692 32.9834 161.204 33.7768ZM182.362 11.1078L183.3 11.5045C179.409 20.7138 181.027 32.36 183.214 41.9943C183.498 41.626 183.782 41.2576 184.066 40.8892C187.645 36.1854 190.741 32.105 193.098 26.5794C193.098 26.5794 193.098 26.5511 193.098 26.5227C193.126 26.3811 193.183 26.1544 193.325 25.9277C193.382 25.8143 193.467 25.7293 193.524 25.6726C193.779 25.0776 194.007 24.4542 194.291 23.8308C195.54 20.8271 196.818 17.7102 197.216 14.6782C198.153 7.28242 195.824 3.9104 193.353 3.23033C189.321 2.15355 185.316 6.77236 183.3 11.5329L182.362 11.1361V11.1078Z" fill="#1F3A37"/>
<path d="M5.05537 138.706V157.011H0V119.522H6.1346C10.1959 119.522 13.0928 120.287 14.8253 121.789C16.5577 123.291 17.4098 125.813 17.4098 129.298C17.4098 132.784 16.8134 134.229 15.6489 135.787C14.4845 137.346 12.6952 138.253 10.3379 138.536L19.2558 156.983H13.8313L5.22577 138.678H5.08377L5.05537 138.706ZM5.05537 135.844H6.61742C8.66229 135.844 10.1391 135.362 10.9912 134.399C11.8432 133.435 12.2692 131.735 12.2692 129.327C12.2692 126.918 11.8716 125.898 11.048 125.133C10.2243 124.368 8.71909 123.971 6.47541 123.971H5.05537V135.844Z" fill="#1F3A37"/>
<path d="M23.5444 149.615V131.849H28.1738V149.87C28.1738 151.032 28.4294 151.911 28.9406 152.506C29.4518 153.101 30.2187 153.412 31.2411 153.412C32.2635 153.412 33.0019 153.101 33.5132 152.506C34.0244 151.911 34.28 151.032 34.28 149.87V131.849H38.9945V149.615C38.9945 152.392 38.3697 154.404 37.1485 155.623C35.9272 156.869 33.9676 157.493 31.2411 157.493C28.5146 157.493 26.5833 156.869 25.3621 155.623C24.1409 154.376 23.5444 152.364 23.5444 149.615Z" fill="#1F3A37"/>
<path d="M46.5492 157.011V135.249H44.0215V131.849H46.5492V125.02H51.1785V131.849H54.6434V135.249H51.1785V157.011H46.5492Z" fill="#1F3A37"/>
<path d="M59.6134 157.011V117.227H64.2427V134.342C64.7823 133.435 65.4924 132.755 66.3728 132.274C67.2532 131.792 68.304 131.565 69.5253 131.565C71.3713 131.565 72.763 132.075 73.6434 133.095C74.5523 134.115 75.0067 135.674 75.0067 137.799V157.011H70.3489V140.094C70.3489 138.394 70.1217 137.232 69.6673 136.609C69.2129 135.986 68.4461 135.674 67.3384 135.674C66.2308 135.674 65.5208 135.986 65.0095 136.637C64.4983 137.289 64.2143 138.224 64.2143 139.499V157.011H59.585H59.6134Z" fill="#1F3A37"/>
<path d="M101.59 138.706V157.011H96.5347V119.522H102.669C106.731 119.522 109.628 120.287 111.36 121.789C113.092 123.291 113.944 125.813 113.944 129.298C113.944 132.784 113.348 134.229 112.155 135.787C110.962 137.346 109.201 138.253 106.844 138.536L115.762 156.983H110.338L101.732 138.678H101.59V138.706ZM101.59 135.844H103.152C105.197 135.844 106.674 135.362 107.526 134.399C108.378 133.435 108.804 131.735 108.804 129.327C108.804 126.918 108.406 125.898 107.583 125.133C106.759 124.368 105.254 123.971 103.01 123.971H101.59V135.844Z" fill="#1F3A37"/>
<path d="M130.644 157.011V154.546C130.02 155.566 129.281 156.303 128.458 156.756C127.634 157.238 126.697 157.465 125.646 157.465C123.516 157.465 121.897 156.359 120.818 154.149C119.71 151.939 119.17 148.68 119.17 144.373C119.17 140.066 119.71 136.864 120.818 134.654C121.897 132.444 123.516 131.367 125.674 131.367C127.833 131.367 127.691 131.594 128.514 132.047C129.338 132.5 130.048 133.237 130.673 134.229V131.82H135.302V157.011H130.673H130.644ZM123.857 144.401C123.857 147.632 124.141 149.899 124.68 151.202C125.22 152.534 126.1 153.186 127.35 153.186C128.6 153.186 129.48 152.534 130.02 151.202C130.559 149.87 130.843 147.603 130.843 144.401C130.843 141.2 130.588 138.933 130.048 137.629C129.508 136.326 128.628 135.702 127.378 135.702C126.129 135.702 125.22 136.354 124.709 137.629C124.169 138.933 123.913 141.171 123.913 144.401H123.857Z" fill="#1F3A37"/>
<path d="M152.939 157.011V154.546C152.314 155.566 151.576 156.303 150.752 156.756C149.928 157.238 148.991 157.465 147.94 157.465C145.697 157.465 144.078 156.416 143.027 154.291C141.976 152.166 141.465 148.907 141.465 144.458C141.465 140.009 141.976 136.694 143.027 134.597C144.078 132.472 145.725 131.424 147.94 131.424C150.156 131.424 149.957 131.65 150.78 132.104C151.604 132.557 152.314 133.294 152.939 134.285V117.227H157.568V157.011H152.939ZM146.151 144.458C146.151 147.689 146.407 149.927 146.946 151.231C147.486 152.534 148.366 153.157 149.616 153.157C150.866 153.157 151.746 152.506 152.286 151.231C152.825 149.927 153.081 147.689 153.081 144.458C153.081 141.228 152.825 138.961 152.286 137.657C151.746 136.354 150.866 135.731 149.616 135.731C148.366 135.731 147.486 136.382 146.946 137.657C146.407 138.961 146.151 141.2 146.151 144.458Z" fill="#1F3A37"/>
<path d="M163.93 124.311C163.93 123.461 164.214 122.753 164.782 122.186C165.35 121.591 166.06 121.307 166.884 121.307C167.707 121.307 168.389 121.591 168.957 122.186C169.525 122.781 169.809 123.489 169.809 124.311C169.809 125.133 169.525 125.841 168.957 126.408C168.389 126.975 167.679 127.258 166.884 127.258C166.089 127.258 165.35 126.975 164.782 126.408C164.214 125.841 163.93 125.133 163.93 124.311ZM164.555 157.011V131.82H169.184V157.011H164.555Z" fill="#1F3A37"/>
<path d="M176.341 157.011V131.82H180.914V134.342C181.539 133.407 182.277 132.727 183.158 132.274C184.038 131.82 185.061 131.594 186.225 131.594C188.071 131.594 189.463 132.104 190.343 133.124C191.252 134.144 191.706 135.702 191.706 137.827V157.039H187.049V140.123C187.049 138.423 186.821 137.261 186.367 136.637C185.913 136.014 185.146 135.702 184.038 135.702C182.93 135.702 182.22 136.014 181.709 136.666C181.198 137.317 180.914 138.253 180.914 139.528V157.039H176.285L176.341 157.011Z" fill="#1F3A37"/>
<path d="M214.058 157.606C214.058 161.092 213.405 163.528 212.155 164.974C210.877 166.419 208.747 167.156 205.765 167.156C202.783 167.156 201.448 166.532 200.141 165.285C198.835 164.039 198.182 162.282 198.182 159.958V159.165H202.584C202.641 160.525 202.925 161.545 203.436 162.225C203.947 162.905 204.742 163.217 205.822 163.217C206.901 163.217 208.037 162.82 208.605 161.998C209.173 161.205 209.457 159.873 209.457 158.031V154.461C208.832 155.453 208.094 156.189 207.27 156.671C206.446 157.153 205.509 157.38 204.458 157.38C202.215 157.38 200.596 156.331 199.545 154.206C198.494 152.081 197.983 148.794 197.983 144.345C197.983 139.896 198.494 136.609 199.545 134.512C200.596 132.387 202.243 131.339 204.458 131.339C206.674 131.339 206.475 131.565 207.298 132.019C208.122 132.472 208.832 133.209 209.457 134.2V131.792H214.086V157.578L214.058 157.606ZM202.641 144.402C202.641 147.632 202.896 149.899 203.436 151.202C203.976 152.506 204.856 153.129 206.106 153.129C207.355 153.129 208.236 152.477 208.775 151.202C209.315 149.899 209.571 147.66 209.571 144.402C209.571 141.143 209.315 138.933 208.775 137.629C208.236 136.326 207.355 135.702 206.106 135.702C204.856 135.702 203.976 136.354 203.436 137.629C202.896 138.933 202.641 141.171 202.641 144.402Z" fill="#1F3A37"/>
<path d="M235.728 148.595V148.935C235.728 151.599 235.046 153.667 233.711 155.198C232.376 156.728 230.559 157.493 228.23 157.493C225.901 157.493 223.316 156.444 222.01 154.348C220.704 152.251 220.05 148.907 220.05 144.288C220.05 139.669 220.704 136.722 222.01 134.597C223.316 132.472 225.304 131.395 227.974 131.395C230.644 131.395 232.859 132.359 234.109 134.314C235.358 136.269 235.983 139.443 235.983 143.863V145.337H224.424V146.073C224.424 148.709 224.736 150.607 225.333 151.797C225.929 152.987 226.895 153.582 228.201 153.582C229.508 153.582 230.047 153.186 230.587 152.364C231.127 151.542 231.411 150.324 231.467 148.68H235.728V148.595ZM224.424 141.681H231.496V141.029C231.496 138.961 231.212 137.459 230.672 136.524C230.133 135.589 229.252 135.136 228.031 135.136C226.81 135.136 225.958 135.674 225.333 136.779C224.736 137.884 224.424 139.499 224.424 141.653V141.681Z" fill="#1F3A37"/>
<path d="M242.146 157.011V131.82H246.634V135.504C247.259 134.172 248.082 133.152 249.076 132.5C250.07 131.82 251.292 131.452 252.74 131.395V136.269H251.973C250.184 136.269 248.849 136.722 247.997 137.629C247.145 138.536 246.747 139.924 246.747 141.851V157.039H242.175L242.146 157.011Z" fill="#1F3A37"/>
<path d="M255.097 146.498V142.361H265.577V146.498H255.097Z" fill="#1F3A37"/>
<path d="M272.819 157.011V119.522H277.875V133.775H286.935V119.522H291.99V157.011H286.935V138.508H277.875V157.011H272.819Z" fill="#1F3A37"/>
<path d="M299.544 149.615V131.849H304.174V149.87C304.174 151.032 304.429 151.911 304.941 152.506C305.452 153.101 306.219 153.412 307.241 153.412C308.264 153.412 309.002 153.101 309.513 152.506C310.024 151.911 310.28 151.032 310.28 149.87V131.849H314.995V149.615C314.995 152.392 314.37 154.404 313.148 155.623C311.927 156.869 309.968 157.493 307.241 157.493C304.515 157.493 302.583 156.869 301.362 155.623C300.141 154.376 299.544 152.364 299.544 149.615Z" fill="#1F3A37"/>
<path d="M321.868 157.011V117.227H326.525V134.285C327.15 133.294 327.86 132.557 328.684 132.104C329.508 131.65 330.445 131.424 331.524 131.424C333.739 131.424 335.358 132.472 336.437 134.597C337.488 136.722 338.028 140.009 338.028 144.458C338.028 148.907 337.488 152.194 336.437 154.291C335.387 156.416 333.739 157.465 331.524 157.465C329.309 157.465 329.508 157.238 328.712 156.756C327.889 156.274 327.179 155.538 326.525 154.546V157.011H321.868ZM326.327 144.458C326.327 147.689 326.611 149.927 327.15 151.231C327.69 152.534 328.599 153.157 329.848 153.157C331.098 153.157 331.978 152.506 332.518 151.231C333.058 149.927 333.313 147.689 333.313 144.458C333.313 141.228 333.058 138.961 332.518 137.657C331.978 136.354 331.098 135.731 329.848 135.731C328.599 135.731 327.69 136.382 327.15 137.657C326.611 138.961 326.327 141.2 326.327 144.458Z" fill="#1F3A37"/>
<path d="M358.988 148.595V148.935C358.988 151.599 358.306 153.667 356.971 155.198C355.637 156.728 353.819 157.493 351.49 157.493C349.161 157.493 346.577 156.444 345.27 154.348C343.964 152.251 343.311 148.907 343.311 144.288C343.311 139.669 343.964 136.722 345.27 134.597C346.577 132.472 348.565 131.395 351.234 131.395C353.904 131.395 356.119 132.359 357.369 134.314C358.619 136.269 359.243 139.443 359.243 143.863V145.337H347.684V146.073C347.684 148.709 347.997 150.607 348.593 151.797C349.19 152.987 350.155 153.582 351.462 153.582C352.768 153.582 353.308 153.186 353.847 152.364C354.387 151.542 354.671 150.324 354.728 148.68H358.988V148.595ZM347.713 141.681H354.784V141.029C354.784 138.961 354.501 137.459 353.961 136.524C353.421 135.589 352.541 135.136 351.32 135.136C350.098 135.136 349.246 135.674 348.622 136.779C348.025 137.884 347.713 139.499 347.713 141.653V141.681Z" fill="#1F3A37"/>
<path d="M365.406 157.011V131.82H369.894V135.504C370.518 134.172 371.342 133.152 372.336 132.5C373.33 131.82 374.551 131.452 376 131.395V136.269H375.233C373.444 136.269 372.109 136.722 371.257 137.629C370.405 138.536 370.007 139.924 370.007 141.851V157.039H365.435L365.406 157.011Z" fill="#1F3A37"/>
<path d="M89.4063 185.546C91.224 185.546 92.7576 185.773 94.0073 186.821C95.3421 187.954 95.6829 189.57 95.6829 190.731C95.6829 193.282 94.0641 195.832 89.9175 195.832H88.1283V203.738H86.1118V185.546H89.4063ZM88.1283 193.905H89.8039C92.218 193.905 93.6665 192.715 93.6665 190.618C93.6665 188.521 90.9684 187.444 89.6619 187.444H88.1567V193.905H88.1283Z" fill="#1F3A37"/>
<path d="M105.964 195.039C105.68 194.387 105.112 193.905 104.374 193.905C103.635 193.905 103.01 194.302 103.01 195.18C103.01 196.059 103.55 196.257 104.828 196.795C106.475 197.475 107.242 197.985 107.668 198.552C108.151 199.147 108.265 199.742 108.265 200.366C108.265 202.746 106.532 204.078 104.345 204.078C102.158 204.078 101.335 204.021 100.369 201.187L102.073 200.479C102.3 201.074 102.954 202.321 104.374 202.321C105.794 202.321 106.22 201.357 106.22 200.507C106.22 199.657 105.453 199.091 104.402 198.637C103.039 198.042 102.158 197.589 101.647 196.965C101.221 196.427 101.136 195.889 101.136 195.294C101.136 193.31 102.528 192.12 104.43 192.12C106.333 192.12 106.646 192.233 107.555 194.16L105.936 195.01L105.964 195.039Z" fill="#1F3A37"/>
<path d="M118.063 202.661L112.837 192.403H115.081L119.085 200.507L122.777 192.403H124.964L116.614 210H114.427L118.034 202.661H118.063Z" fill="#1F3A37"/>
<path d="M139.108 195.577C138.057 194.273 136.552 193.877 135.558 193.877C133.456 193.877 131.553 195.35 131.553 198.099C131.553 200.847 133.513 202.293 135.558 202.293C137.602 202.293 138.171 201.783 139.221 200.507V202.859C138 203.766 136.665 204.021 135.614 204.021C132.093 204.021 129.537 201.499 129.537 198.099C129.537 194.698 132.093 192.092 135.614 192.092C139.136 192.092 138.597 192.8 139.136 193.168V195.52L139.108 195.577Z" fill="#1F3A37"/>
<path d="M145.953 183.846H147.912V193.707C148.282 193.253 149.276 192.12 151.178 192.12C153.081 192.12 153.734 192.658 154.445 193.678C155.013 194.528 155.098 195.464 155.098 196.71V203.709H153.138V196.767C153.138 196.087 153.081 195.294 152.627 194.698C152.258 194.217 151.633 193.877 150.781 193.877C149.929 193.877 149.361 194.075 148.793 194.755C148.026 195.662 147.969 196.994 147.969 197.815V203.738H146.009V183.846H145.953Z" fill="#1F3A37"/>
<path d="M161.658 198.099C161.658 194.67 164.214 192.12 167.679 192.12C171.144 192.12 173.7 194.67 173.7 198.099C173.7 201.528 171.144 204.049 167.679 204.049C164.214 204.049 161.658 201.528 161.658 198.099ZM163.675 198.099C163.675 200.876 165.634 202.293 167.679 202.293C169.724 202.293 171.684 200.847 171.684 198.099C171.684 195.35 169.781 193.877 167.679 193.877C165.578 193.877 163.675 195.35 163.675 198.099Z" fill="#1F3A37"/>
<path d="M182.277 194.217V203.738H180.318V194.217H179.125V192.403H180.318V188.323H182.277V192.403H184.237V194.217H182.277Z" fill="#1F3A37"/>
<path d="M189.917 183.846H191.877V193.707C192.246 193.253 193.24 192.12 195.143 192.12C197.046 192.12 197.699 192.658 198.409 193.678C198.977 194.528 199.062 195.464 199.062 196.71V203.709H197.102V196.767C197.102 196.087 197.046 195.294 196.591 194.698C196.222 194.217 195.597 193.877 194.745 193.877C193.893 193.877 193.325 194.075 192.757 194.755C191.99 195.662 191.933 196.994 191.933 197.815V203.738H189.974V183.846H189.917Z" fill="#1F3A37"/>
<path d="M216.444 200.847C216.103 201.471 215.62 202.151 215.052 202.661C214.001 203.596 212.723 204.049 211.275 204.049C208.548 204.049 205.68 202.321 205.68 198.127C205.68 193.933 207.753 192.12 211.161 192.12C214.569 192.12 214.768 193.197 215.45 194.188C216.16 195.209 216.557 196.937 216.529 198.439H207.696C207.696 200.791 209.343 202.293 211.303 202.293C213.263 202.293 212.979 202.009 213.632 201.471C214.143 201.046 214.569 200.451 214.796 199.912L216.444 200.819V200.847ZM214.484 196.824C214.143 195.039 212.808 193.877 211.161 193.877C209.514 193.877 208.122 195.124 207.838 196.824H214.512H214.484Z" fill="#1F3A37"/>
<path d="M223.118 192.403H225.078V193.622C225.277 193.31 226.129 192.12 227.634 192.12C229.139 192.12 228.884 192.347 229.395 192.573L228.458 194.358C228.032 194.047 227.606 193.99 227.322 193.99C226.526 193.99 226.043 194.33 225.731 194.698C225.39 195.124 225.078 195.889 225.078 197.759V203.738H223.118V192.432V192.403Z" fill="#1F3A37"/>
<path d="M243.254 192.403H245.214V203.709H243.254V202.123C242.601 202.973 241.38 204.021 239.363 204.021C236.495 204.021 233.854 202.009 233.854 198.014C233.854 194.018 236.466 192.092 239.363 192.092C242.26 192.092 242.715 193.282 243.254 193.962V192.347V192.403ZM235.87 198.07C235.87 200.507 237.233 202.321 239.59 202.321C241.948 202.321 243.368 200.337 243.368 198.099C243.368 195.86 241.351 193.905 239.59 193.905C237.83 193.905 235.87 195.322 235.87 198.07Z" fill="#1F3A37"/>
<path d="M254.472 210H252.513V192.403H254.472V193.99C255.807 192.318 257.54 192.148 258.363 192.148C261.913 192.148 263.873 195.095 263.873 198.155C263.873 201.216 261.885 204.078 258.42 204.078C254.955 204.078 255.296 203.256 254.444 202.179V210.028L254.472 210ZM261.857 198.127C261.857 195.35 259.982 193.877 258.136 193.877C256.29 193.877 254.359 195.379 254.359 198.099C254.359 200.819 255.836 202.293 258.164 202.293C260.493 202.293 261.857 200.394 261.857 198.127Z" fill="#1F3A37"/>
<path d="M271.456 186.736C272.223 186.736 272.848 187.359 272.848 188.124C272.848 188.89 272.223 189.513 271.456 189.513C270.689 189.513 270.064 188.89 270.064 188.124C270.064 187.359 270.689 186.736 271.456 186.736ZM272.45 192.403V203.709H270.49V192.403H272.45Z" fill="#1F3A37"/>
<path d="M289.775 200.847C289.434 201.471 288.951 202.151 288.383 202.661C287.332 203.596 286.054 204.049 284.606 204.049C281.879 204.049 279.011 202.321 279.011 198.127C279.011 193.933 281.084 192.12 284.492 192.12C287.9 192.12 288.099 193.197 288.781 194.188C289.491 195.209 289.888 196.937 289.86 198.439H281.027C281.027 200.791 282.674 202.293 284.634 202.293C286.594 202.293 286.31 202.009 286.963 201.471C287.474 201.046 287.9 200.451 288.127 199.912L289.775 200.819V200.847ZM287.815 196.824C287.474 195.039 286.139 193.877 284.492 193.877C282.845 193.877 281.453 195.124 281.169 196.824H287.843H287.815Z" fill="#1F3A37"/>
</g>
<defs>
<clipPath id="clip0_1008_73">
<rect width="376" height="210" fill="white"/>
</clipPath>
</defs>
</svg>
