<svg width="412" height="570" viewBox="0 0 412 570" fill="none" xmlns="http://www.w3.org/2000/svg">
<path d="M402.607 450.344C397.143 433.601 385.25 420.077 372.392 408.647C363.874 401.08 352.945 395.284 345.231 387.718C355.517 381.278 364.195 381.922 369.821 367.271C383.803 331.37 344.909 307.382 314.373 304.323C306.819 303.518 297.819 303.679 290.265 304.323C284.158 304.967 260.211 313.016 258.925 312.211C257.64 311.246 254.425 285.969 254.908 282.428C288.015 258.279 341.213 236.544 347.963 189.373C350.695 170.859 342.981 152.184 322.248 149.286C274.997 142.685 251.533 212.073 247.836 248.619C247.193 255.381 249.282 275.022 247.354 279.369C245.747 282.75 202.192 301.103 196.406 305.772C193.996 306.899 193.996 305.933 192.549 304.484C190.46 302.069 183.067 278.403 183.388 274.378C183.388 274.056 183.388 273.734 183.388 273.412L184.353 270.353C195.764 236.061 229.996 188.246 246.872 153.15C263.908 117.57 300.069 3.58628 227.586 6.16218C165.227 8.2551 152.531 115.155 154.62 160.716C156.227 195.652 169.727 232.842 171.495 263.591C171.977 273.573 163.781 294.985 160.566 305.289C151.888 299.815 111.226 275.988 108.012 268.743C105.44 262.947 110.744 240.408 111.065 232.198C112.19 201.126 108.655 158.14 91.4578 131.576C73.6182 104.207 39.2246 96.6407 34.0816 137.05C28.778 177.943 53.207 216.581 77.9575 246.526C82.7791 252.322 99.9759 267.455 99.9759 272.607C99.9759 277.92 85.9934 324.447 83.1005 325.896C81.9755 326.54 61.725 327.506 57.2249 328.311C48.2247 330.243 37.9389 332.336 29.5816 336.361C-16.8658 359.222 11.5812 408.647 59.3143 366.144C66.7073 359.544 83.7434 332.497 85.8327 331.853C95.7972 328.472 125.048 334.912 136.619 335.878C108.012 354.07 67.8323 372.584 52.5642 405.105C46.4569 418.145 41.6353 437.948 54.0106 449.056C82.1361 474.171 120.387 406.071 131.798 386.269C135.494 379.99 152.37 342.317 154.62 341.029C156.87 339.902 189.656 350.367 190.138 352.299C190.46 353.587 173.584 367.432 170.852 370.652C151.245 393.513 129.869 428.771 127.78 459.521C120.066 574.309 299.748 617.456 261.176 467.088C252.015 431.508 230.639 396.894 217.139 362.764L279.497 389.167C295.569 420.077 342.499 491.559 381.071 491.076C405.661 490.754 408.554 469.019 402.446 450.183L402.607 450.344ZM14.4741 371.779C0.00950623 343.927 73.7789 327.989 79.2432 332.175C82.779 334.912 28.4565 398.826 14.4741 371.779ZM261.176 318.168C263.265 314.787 292.998 310.441 298.462 310.28C300.069 310.28 301.837 310.28 303.444 310.28H305.373C363.07 311.407 395.857 369.686 336.07 383.854L270.658 354.07C270.015 352.46 269.372 350.045 268.729 348.113C267.122 343.927 259.568 320.744 261.176 318.329V318.168ZM254.747 320.261C256.193 321.066 261.979 346.181 263.747 351.011C254.104 350.528 234.014 337.649 223.085 336.039C223.246 335.717 223.728 335.395 224.05 335.073L225.014 334.107C225.175 333.946 225.818 334.107 225.978 334.107L226.3 333.785L226.943 333.141C227.586 332.819 228.228 332.497 228.871 332.175C231.604 330.565 253.461 319.456 254.586 320.261H254.747ZM266.479 199.355C266.479 199.355 284.48 160.233 308.266 155.242C346.356 147.354 346.034 199.677 323.695 224.792C312.444 237.51 269.211 271.158 253.783 275.505C252.175 249.424 266.479 199.355 266.479 199.355ZM247.515 286.452C250.247 286.452 248.479 287.901 248.961 289.35C249.765 291.604 253.461 312.372 252.979 313.499C252.658 314.465 237.55 321.066 235.139 322.193C231.282 324.125 226.943 325.896 223.246 328.15C222.925 328.311 222.603 328.794 222.282 329.116C218.746 331.209 217.782 332.175 213.282 332.175C212.8 332.175 211.353 331.209 210.228 331.209C200.264 327.184 198.978 321.549 195.281 312.372C204.603 310.924 241.889 286.452 247.354 286.613L247.515 286.452ZM174.388 63.154C206.049 -11.7081 275.962 -5.42938 264.551 84.0832C261.658 106.3 251.05 128.678 242.854 149.286C242.532 149.608 242.05 149.93 241.889 150.252C241.247 151.218 241.247 152.506 240.925 153.311C224.371 192.11 201.549 218.835 176.477 252.644C162.334 193.72 149.959 120.79 174.388 63.154ZM178.567 287.418C180.013 290.316 187.567 307.221 187.245 308.992C186.924 312.211 181.942 311.89 180.495 314.304C159.281 310.924 177.12 302.713 178.567 287.418ZM49.832 195.33C42.4389 183.899 33.9209 143.007 45.0104 124.171C58.5107 100.988 79.8862 123.527 88.2435 138.016C108.976 174.24 106.565 222.377 102.226 262.625C102.226 262.625 57.225 206.921 49.832 195.33ZM92.7436 433.44C83.4219 442.938 62.6894 461.131 54.1713 439.236C42.5997 409.291 83.2612 375.965 104.476 361.959C107.53 359.866 147.066 335.717 148.673 339.097C151.727 345.859 102.065 423.941 92.7436 433.44ZM153.655 328.15L142.405 332.014L89.3684 324.608C96.2793 319.134 103.351 276.31 105.28 274.378C107.53 272.124 149.638 311.245 157.834 310.119C160.727 314.143 154.459 323.803 153.816 327.989L153.655 328.15ZM158.638 334.107C159.281 333.463 159.924 331.209 160.566 330.082C166.513 329.277 173.424 321.71 179.37 322.515C190.46 324.125 200.907 334.107 199.139 344.893C199.139 344.893 197.531 345.376 197.21 346.825L158.477 333.946L158.638 334.107ZM250.89 455.818C302.801 613.592 128.101 569.48 133.887 461.775C135.494 431.025 160.084 389.811 181.46 368.398C185.638 364.212 194.638 354.875 200.264 355.036C200.424 355.036 247.193 444.87 250.89 455.818ZM266.158 378.863C259.086 376.609 220.193 359.705 215.693 356.002C206.532 348.596 208.299 339.58 221.157 341.029C221.157 341.029 228.711 343.927 229.032 344.088C241.247 348.113 253.14 354.714 265.676 357.934C268.408 365.822 272.426 373.55 275.64 381.278C272.426 380.634 269.211 379.829 266.158 378.863ZM273.712 362.442C273.39 359.866 275.158 361.637 276.604 361.959L277.247 362.603C277.247 362.603 277.408 362.925 277.569 362.925C278.051 363.086 279.015 362.764 279.497 362.925C295.73 368.398 313.087 377.575 328.034 385.786C319.516 386.913 290.908 387.718 284.158 383.693C282.39 382.727 273.712 364.373 273.551 362.442H273.712ZM393.125 482.221C362.91 500.574 316.945 440.041 302.962 418.467C301.194 415.891 286.087 391.903 287.533 390.776C288.176 390.132 301.998 392.708 304.891 392.869C320.48 393.191 335.588 387.557 348.124 396.733C363.874 411.384 382.999 421.848 394.089 441.49C394.089 441.973 394.571 442.294 394.893 442.777C395.214 443.26 395.375 443.743 395.696 444.387C395.696 444.709 395.696 445.031 395.696 445.353C395.857 445.997 396.5 446.641 396.66 447.285C400.196 458.233 406.946 473.688 393.125 482.06V482.221Z" fill="white"/>
<path d="M216.976 569.963C204.44 569.963 190.779 566.421 177.44 559.499C148.35 544.204 118.617 509.912 121.992 459.521C124.242 427.162 146.421 390.616 166.511 367.111C167.797 365.501 170.85 362.925 175.511 358.739C176.797 357.612 178.565 356.002 180.172 354.553C173.261 351.978 162.814 348.919 157.832 347.792C155.1 352.782 149.475 364.535 145.939 371.941C142.082 379.99 138.707 387.074 137.26 389.65L136.457 391.099C118.938 421.527 95.9558 456.784 72.0089 460.648C64.1337 461.936 56.58 459.682 50.312 453.887C32.7938 438.27 43.7226 410.901 47.4191 403.013C60.598 374.839 90.6521 357.129 117.01 341.352C117.813 340.869 118.617 340.386 119.421 339.903C108.974 338.293 95.1522 336.361 89.2057 337.649C87.7592 339.42 84.5449 343.928 81.9734 347.47C75.5447 356.485 68.3124 366.789 63.4909 370.975C37.7761 393.836 20.0971 389.65 13.6684 386.913C5.31111 383.21 0.328865 375.644 0.00743008 366.467C-0.314005 352.943 9.81118 339.742 27.008 331.209C36.3296 326.701 47.7406 324.287 56.0979 322.516C58.6694 322.033 63.8123 321.55 71.6874 321.067C74.2589 320.906 77.3126 320.584 79.5626 320.423C83.2591 311.89 93.2236 279.852 94.0272 273.091C92.5807 270.032 84.7056 262.143 80.6877 258.118C77.634 255.059 74.9018 252.322 73.2946 250.39C38.4189 208.21 23.6329 170.859 28.133 136.246C31.3474 111.775 44.044 105.335 51.4371 103.564C66.5445 100.183 84.5449 110.004 96.438 128.357C117.171 160.234 117.813 211.752 117.171 232.359C117.171 235.579 116.367 240.087 115.563 245.4C114.599 251.678 112.831 263.109 113.635 266.168C116.046 269.71 130.832 279.852 157.511 296.113C157.511 295.952 157.511 295.63 157.671 295.469C161.046 285.487 166.029 270.515 165.707 263.753C164.904 249.585 161.529 233.969 157.832 217.387C153.814 198.872 149.635 179.714 148.832 160.878C147.225 127.713 153.011 55.7488 185.797 20.0082C197.529 7.2897 211.512 0.527959 227.423 0.0449772C245.905 -0.598998 259.406 5.67976 267.763 18.3983C291.388 54.6219 263.745 131.577 252.173 155.565C245.262 169.893 235.941 185.832 225.976 202.575C211.512 226.885 196.726 252.161 189.976 272.125L189.333 274.217C189.333 274.217 189.333 274.539 189.333 274.7C189.333 278.081 193.833 292.571 196.244 298.528C200.744 295.952 208.137 292.41 218.262 287.58C226.298 283.716 238.191 278.242 241.887 275.827C242.209 272.769 241.887 265.363 241.887 260.855C241.727 255.542 241.566 250.873 241.887 247.814C244.137 225.275 256.031 176.494 284.799 153.955C296.371 144.778 309.228 141.237 323.05 143.169C332.854 144.617 340.889 149.125 346.514 156.531C352.943 165.225 355.675 177.299 353.747 190.018C347.961 229.783 312.603 252 281.424 271.803C274.031 276.471 267.12 280.818 260.691 285.326C261.013 289.834 262.138 299.332 263.102 305.128C265.834 304.484 269.209 303.357 272.102 302.552C280.46 300.137 286.245 298.528 289.46 298.206C297.496 297.24 306.978 297.24 314.853 298.206C334.943 300.298 360.336 310.924 372.229 330.404C379.462 342.318 380.426 355.68 375.122 369.204C370.14 382.083 362.747 385.464 355.675 388.684C357.925 390.294 360.175 391.904 362.586 393.675C367.086 396.895 371.747 400.115 376.087 403.818C392.48 418.307 403.087 432.796 408.069 448.091C412.891 462.741 412.087 476.426 405.659 485.441C402.123 490.593 394.891 496.55 381.23 496.711C381.23 496.711 380.908 496.711 380.747 496.711C362.104 496.711 340.729 482.865 317.264 455.497C299.264 434.567 283.995 410.257 275.156 393.514L228.226 373.712C231.923 382.083 235.941 390.455 239.959 398.666C250.245 420.239 261.013 442.456 266.799 465.156C281.745 523.275 263.424 548.39 251.048 558.05C241.566 565.455 229.673 569.319 216.655 569.319L216.976 569.963ZM197.369 362.281C195.119 363.73 191.743 366.628 186.118 372.102L185.636 372.585C164.743 393.353 141.439 433.601 139.832 462.097C137.421 504.922 164.904 533.901 189.011 545.814C209.101 555.635 229.03 555.152 241.084 544.687C257.477 530.359 258.923 499.448 245.102 457.75C242.209 448.896 206.851 380.312 197.369 362.281ZM297.496 397.861C300.871 403.818 305.532 411.384 308.103 415.248C328.996 447.447 368.211 490.432 390.069 477.07C397.944 472.24 395.855 464.029 391.837 452.116C391.515 451.15 391.194 450.345 391.033 449.54C390.712 448.896 390.23 448.252 389.908 447.125C389.908 446.642 389.748 446.32 389.587 445.837C389.265 445.354 388.944 444.71 388.622 444.066C381.39 431.508 370.622 422.976 359.372 413.96C354.39 409.935 349.247 405.91 344.264 401.242C337.193 396.251 328.675 397.056 318.871 397.861C314.371 398.344 309.71 398.666 304.728 398.666C303.442 398.666 301.192 398.344 297.496 397.861ZM139.35 348.758C128.582 354.392 112.349 364.052 108.01 366.95C101.26 371.458 84.2235 383.532 71.8482 398.505C59.6337 413.316 55.7764 426.196 59.9551 437.143C61.4015 441.007 63.3302 443.1 65.4195 443.583C70.241 444.549 78.9197 439.236 88.5628 429.416C96.9201 420.883 128.582 370.653 139.35 348.758ZM288.013 378.863C290.906 379.99 297.978 380.634 305.692 380.795C298.46 377.254 291.067 373.873 283.835 370.975C285.442 374.195 287.049 377.415 288.013 378.863ZM275.477 349.563L336.711 377.415C353.908 372.907 362.908 363.891 361.783 352.621C359.533 331.37 330.764 316.559 305.371 316.076H303.442C302.799 316.076 302.156 316.076 301.674 316.076C300.71 316.076 299.746 316.076 298.781 316.076C293.638 316.398 274.352 319.296 267.281 321.55C268.406 327.506 272.584 341.03 274.352 345.699C274.674 346.665 274.995 347.792 275.317 348.758C275.317 348.919 275.317 349.08 275.477 349.241V349.563ZM19.7757 369.043C21.2221 371.619 22.8294 372.585 25.5616 372.424C38.419 371.619 59.955 349.885 69.2767 337.971C55.7764 339.903 29.4188 347.47 20.74 358.739C18.0078 362.281 17.6864 365.34 19.615 369.043H19.7757ZM216.012 347.309C216.333 348.114 217.137 349.563 219.387 351.334C222.923 354.07 253.62 367.755 265.031 372.102C263.745 369.043 262.298 365.984 261.173 362.925C254.584 360.993 248.316 358.256 242.37 355.68C237.227 353.426 232.244 351.334 227.262 349.724C227.262 349.724 226.941 349.724 219.869 346.987C217.78 346.826 216.655 346.987 216.173 347.309H216.012ZM208.137 357.129C208.458 357.612 208.619 358.095 208.94 358.578L208.458 357.451C208.458 357.451 208.297 357.129 208.137 356.968V357.129ZM203.154 349.563C203.637 349.885 204.119 350.368 204.601 350.851C204.279 350.046 204.119 349.241 204.119 348.597C203.797 348.919 203.637 349.241 203.154 349.563ZM237.387 334.429C239.959 335.556 242.691 336.844 245.584 338.132C248.798 339.581 252.173 341.191 255.227 342.318C255.227 341.835 254.906 341.191 254.745 340.547C253.78 336.844 252.334 331.531 251.209 327.667C247.191 329.438 241.566 332.175 237.387 334.429ZM203.958 334.751C204.762 336.844 205.244 338.937 205.404 341.191C206.208 339.903 207.333 338.293 209.422 337.005H208.94L208.137 336.683C206.69 336.039 205.404 335.395 204.119 334.751H203.958ZM171.172 332.014L192.869 339.259C192.386 337.971 191.744 336.844 191.101 336.039C188.208 332.175 183.386 329.277 178.565 328.472C177.279 328.311 173.904 330.243 171.815 331.531L171.172 331.853V332.014ZM211.833 325.414C212.797 325.574 213.601 325.896 214.244 326.218C215.69 326.218 216.173 325.896 218.262 324.609C218.744 324.126 219.226 323.643 220.03 323.16C223.083 321.389 226.298 319.779 229.512 318.33C230.476 317.847 231.441 317.364 232.405 317.042C233.048 316.72 234.494 316.076 236.262 315.271C238.673 314.144 243.495 312.051 246.548 310.441C245.905 306.094 244.62 298.528 243.816 294.342C239.477 296.596 232.726 300.298 227.423 303.196C216.815 309.153 208.94 313.5 203.154 316.076C205.083 321.067 206.69 323.321 211.833 325.414ZM98.8487 319.94L141.76 325.896L148.832 323.482C149.153 322.516 149.636 321.389 150.118 320.262C150.761 318.813 151.564 316.72 152.046 315.11C145.778 312.534 136.617 305.611 119.903 292.249C116.206 289.351 112.028 285.97 108.652 283.394C108.17 285.165 107.849 286.936 107.367 288.707C103.992 303.035 101.42 313.178 98.6881 319.94H98.8487ZM164.421 313.5C164.421 316.881 162.975 320.423 161.689 323.643C162.975 322.999 164.422 322.194 165.868 321.389C167.636 320.262 169.725 319.135 171.654 318.169C168.761 317.042 166.511 315.271 165.225 312.534C165.225 312.373 165.064 312.051 164.904 311.89L164.421 313.339V313.5ZM185.476 318.008C187.886 318.813 190.297 319.94 192.547 321.389C192.065 320.101 191.422 318.652 190.94 317.364C190.779 316.72 190.458 316.076 190.297 315.593C188.851 316.881 187.083 317.525 186.118 318.008C186.118 318.008 185.797 318.008 185.636 318.169L185.476 318.008ZM176.797 307.221C177.279 307.382 177.922 307.543 178.886 307.865C179.368 307.543 180.011 307.221 180.493 307.06C180.011 305.933 179.529 304.645 179.047 303.357C178.886 303.679 178.725 304.001 178.404 304.323C177.922 305.289 177.279 306.416 176.797 307.221ZM176.957 270.998L177.6 272.286V271.642C177.761 271.642 178.725 268.583 178.725 268.583C180.815 262.304 183.708 255.381 187.083 248.458C185.154 251.034 183.225 253.61 181.297 256.186L177.44 261.499C177.44 262.143 177.44 262.626 177.44 263.27C177.44 265.524 177.44 268.261 176.797 270.998H176.957ZM272.102 201.448C270.817 205.956 261.013 241.858 259.727 266.329C277.406 256.83 309.549 231.554 319.192 220.768C332.211 206.278 337.032 181.163 329.478 167.962C325.621 161.361 318.871 159.107 309.549 161.039C292.835 164.581 277.085 190.823 272.102 201.287V201.448ZM54.8121 192.111C59.955 199.999 84.0627 230.588 97.7237 247.493C100.938 210.786 100.295 171.181 83.0984 141.076C77.3126 130.933 66.7053 120.307 59.3123 120.307C58.0265 120.307 54.33 120.307 50.1513 127.23C45.9727 134.314 44.687 146.871 46.4548 161.844C48.062 175.689 51.9192 187.603 54.8121 192.111ZM174.547 63.3156L179.85 65.5695C157.832 117.892 166.993 184.061 179.368 238.799C180.975 236.706 182.583 234.613 184.19 232.52C204.44 205.795 221.958 182.612 235.298 151.218C235.298 151.218 235.298 151.057 235.298 150.896C235.459 150.091 235.78 148.803 236.584 147.515C236.905 146.871 237.387 146.388 237.709 146.066C239.155 142.686 240.441 139.144 242.048 135.602C249.12 118.536 256.352 100.827 258.602 83.6008C263.906 41.5814 250.727 22.4231 236.744 18.5593C213.923 12.4415 191.261 38.6835 179.85 65.7305L174.547 63.4765V63.3156Z" fill="white"/>
</svg>
